#!OML:ASF E:/inclinewalkrobotboard/Project1/Captureday1/Session1/subject1.ASF
:FULLY-SPECIFIED
:DEGREES
276
root 0 0 0 -3.47332171499288 -5.182873524633202 -2.5242866988160992
lowerback 12.602055015608746 2.2387011827862158 2.414321023709689
upperback 2.48317591666614 3.256567503768948 0.6568652403852029
thorax -4.291032719590436 1.5549663366936155 -1.094480562669475
lowerneck -16.037963234025383 -3.710725613215572 -2.6557841092777728
upperneck 19.323539737088574 -4.899459426349127 1.7582057920374872
head 8.615066385435606 -2.308703978314485 0.39929698766857524
rclavicle -2.481166283414637E-15 1.7869799735371404E-15
rhumerus -30.019087289031816 -17.878140819952705 -82.20974967291696
rradius 26.648986955761927
rwrist 12.156781723623975
rhand -20.162476259958105 28.04705000328331
rfingers 7.125019999999996
rthumb 6.20506201958802 -2.0169404425088118
lclavicle -6.451312512693763E-15 1.069926527891794E-15
lhumerus -32.934464329017615 3.4320035761134347 83.45179604264874
lradius 21.94379810069035
lwrist 3.3807156156265785
lhand -27.678074827021355 26.96358312365112
lfingers 7.125020000000051
lthumb -1.0929984601372844 56.93546509742576
rfemur -8.577081704844794 2.0812924615733635 22.597856725843293
rtibia 54.48232190107918
rfoot 3.5231329641135583 -2.3901090728075496
rtoes 8.41709332235515
lfemur -15.878226975737057 -3.9842553585203886 -18.650522677751862
ltibia 20.894563098748925
lfoot -9.967030547488367 2.436429604012901
ltoes -0.01113173431669523
277
root 0 0 0 -5.224751865394428 -4.407646564891481 1.5470340523358508
lowerback 13.650249150156611 1.3296069682180116 -1.7973308937339285
upperback 2.5678995247420877 1.560611233258516 0.1834932009187944
thorax -4.823516054797912 0.8068971019118034 1.0316501265987583
lowerneck -15.625895994959999 -3.497410595561063 -2.4840131606288165
upperneck 17.131157471314634 -4.556883176375601 1.8589513278481575
head 7.930809998562232 -2.147369997061034 0.47293415216669044
rclavicle -2.8801461586145847E-15 2.411487211192169E-15
rhumerus -30.576796958474947 -19.419626159222247 -81.81836303842482
rradius 25.69627162508518
rwrist 12.588675452424546
rhand -20.049015414052292 27.441796973768824
rfingers 7.125019999999997
rthumb 6.315870645967261 -2.6224026885851615
lclavicle -6.97413572912612E-15 1.7827557777465015E-15
lhumerus -31.73292237143264 2.399850834593686 83.60135449954049
lradius 22.857205201937973
lwrist 4.030255526104317
lhand -27.980936167503152 26.9144664870483
lfingers 7.125020000000048
lthumb -1.3871133820175565 56.92063278760011
rfemur -19.248507661550022 0.2872770737657069 18.758151696190957
rtibia 61.183073514211465
rfoot 6.458307551061473 -4.0948008420768955
rtoes 9.78724328146826
lfemur -3.685203652188224 -4.344401762141721 -24.173084340584012
ltibia 18.844312139527037
lfoot -13.201530446614829 1.008356519241374
ltoes -0.5555831462226202
278
root 0 0 0 -4.3418290516833675 -3.3116947065410205 3.288363204559603
lowerback 13.470381087022211 0.6278687780899217 -3.572520961871988
upperback 2.420941956748325 0.394516858769565 0.15170913354581628
thorax -4.865326589533321 0.2837341612118006 2.148294984300214
lowerneck -14.695839746206078 -3.0996269577325455 -2.6452052258411585
upperneck 16.354233755479306 -3.930428146406349 2.065973181899772
head 7.473316903349115 -1.8829222972151627 0.6601244120446645
rclavicle -1.6230721929975284E-15 3.578607319459315E-15
rhumerus -30.8418991644798 -20.952940096314755 -81.2318261572923
rradius 25.10745586289972
rwrist 12.590796614028903
rhand -19.95634034603133 26.70956236160172
rfingers 7.12502
rthumb 6.404536533660163 -3.362164584885747
lclavicle -3.4037464886601422E-15 3.462590806204573E-15
lhumerus -29.1609958430627 -0.9132488154702886 83.74730996677
lradius 26.602833084873566
lwrist 6.169811200226446
lhand -28.36110238668872 26.406329591897933
lfingers 7.1250200000000365
lthumb -1.751391805001326 56.437392899298864
rfemur -23.278745465617202 -0.5455957781094547 16.11288746665011
rtibia 60.1054571445727
rfoot 6.127003776829357 -4.860004650689785
rtoes 8.879182503567277
lfemur 3.8356393957940584 -4.875356419614802 -27.385502037544
ltibia 18.32568176840784
lfoot -16.085768436825642 0.714972445813058
ltoes -0.009873820258132326
279
root 0 0 0 -2.805977360239625 -1.9241459638556413 4.00733576557975
lowerback 12.193915834644882 -0.16190596000954294 -4.542670930213783
upperback 1.7675621039503884 -0.8021372183372086 0.17466231926566245
thorax -4.847042812142882 -0.28472318850660105 2.8705261670931885
lowerneck -15.192192473685417 -2.7049942168274184 -2.857352903728044
upperneck 14.135509743895689 -3.2801836883740685 1.9353958120909096
head 6.758364595319724 -1.6318230507465654 0.74597228194141
rclavicle 4.111169419362676E-16 3.2577891982504708E-15
rhumerus -31.271009396928456 -21.921439836538454 -80.85187829332827
rradius 24.356717172469374
rwrist 12.12166088314854
rhand -19.857373250521213 26.380492385358963
rfingers 7.125020000000003
rthumb 6.500389981459468 -3.690691482919277
lclavicle 3.6084262266443135E-15 3.354467190276403E-15
lhumerus -27.52877639251214 -4.2649408295903335 83.64242698998578
lradius 30.877897959571175
lwrist 8.2851794495564
lhand -28.277679095560487 25.59502021850018
lfingers 7.125020000000026
lthumb -1.6729221641663194 55.56613843899575
rfemur -26.309024256943253 -0.2015235935328925 15.554580126894594
rtibia 55.744506175202545
rfoot 4.283598884806469 -6.0579616868569115
rtoes 7.593666627917698
lfemur 6.9487766508717845 -5.360516152674261 -28.400227814303566
ltibia 17.645060570528706
lfoot -16.93070087605765 0.6095037161213464
ltoes 0.414392343926977
280
root 0 0 0 -1.7678238061522176 -1.100085707310278 3.855211214683146
lowerback 10.793163100196022 -0.5997908275451781 -4.627547181916102
upperback 1.0729782292548296 -1.3949809796939439 0.2851616151011537
thorax -4.789731440766037 -0.5837233940665907 3.1056118147012968
lowerneck -15.876369206940268 -2.6089773392754974 -2.9938733112058733
upperneck 11.388019072727399 -3.0407748461506126 1.8212570651686386
head 5.859865107298314 -1.5699007711521766 0.7777796311251963
rclavicle 2.8971009193398847E-16 2.099647556480718E-15
rhumerus -31.810305124648963 -23.172703412224003 -80.56384141480298
rradius 23.485601919422187
rwrist 11.95707394410428
rhand -19.80099636403806 25.885005332447726
rfingers 7.125020000000003
rthumb 6.555219494528241 -4.184537879987374
lclavicle 4.704315378873231E-15 2.259853601042222E-15
lhumerus -26.844396354364445 -5.391971457501232 83.53646181388264
lradius 32.279780403556124
lwrist 8.80278781182466
lhand -28.20431331703482 24.969110336240384
lfingers 7.125020000000016
lthumb -1.6105758349562826 54.915301460131694
rfemur -30.44535189455447 1.6740037997751216 18.524823821011314
rtibia 49.08491987728327
rfoot -0.8867090899175731 -8.669477963669173
rtoes 5.111305123101847
lfemur 9.003145749108558 -5.793558700574321 -28.677924557105154
ltibia 16.823587689206448
lfoot -16.71781115873309 0.2500991123201146
ltoes -0.01948841900122389
